<svg xmlns="http://www.w3.org/2000/svg" viewBox="0 0 400 600">
  <g>
    <path d="M120 500 Q140 480 160 520 Q180 560 200 540 Q220 520 240 480 Q260 440 280 420 Q300 400 320 380 Q340 360 360 340 Q380 320 360 300 Q340 280 320 260 Q300 240 280 220 Q260 200 240 180 Q220 160 200 140 Q180 120 160 100 Q140 80 120 100 Q100 120 80 140 Q60 160 40 180 Q20 200 40 220 Q60 240 80 260 Q100 280 120 300 Q140 320 160 340 Q180 360 200 380 Q220 400 240 420 Q260 440 280 460 Q300 480 320 500 Q340 520 360 540 Q380 560 360 580 Q340 600 320 580 Q300 560 280 540 Q260 520 240 500 Q220 480 200 460 Q180 440 160 420 Q140 400 120 380 Q100 360 80 340 Q60 320 40 300 Q20 280 40 260 Q60 240 80 220 Q100 200 120 180 Q140 160 160 140 Q180 120 200 100 Q220 80 240 100 Q260 120 280 140 Q300 160 320 180 Q340 200 360 220 Q380 240 360 260 Q340 280 320 300 Q300 320 280 340 Q260 360 240 380 Q220 400 200 420 Q180 440 160 460 Q140 480 120 500 Z" fill="#F9B233" stroke="#1A2A36" stroke-width="8"/>
    <ellipse cx="200" cy="300" rx="80" ry="120" fill="#1A2A36" opacity="0.7"/>
    <ellipse cx="200" cy="300" rx="60" ry="100" fill="#F9B233" opacity="0.8"/>
    <ellipse cx="200" cy="300" rx="40" ry="80" fill="#1A2A36" opacity="0.9"/>
    <ellipse cx="200" cy="300" rx="20" ry="60" fill="#F9B233" opacity="1"/>
    <rect x="180" y="400" width="40" height="120" fill="#1A2A36"/>
    <rect x="160" y="520" width="80" height="40" fill="#F9B233"/>
    <ellipse cx="200" cy="560" rx="40" ry="20" fill="#1A2A36"/>
  </g>
</svg>
